<svg width="140" height="20" viewBox="0 0 140 20" fill="none" xmlns="http://www.w3.org/2000/svg">
<g clip-path="url(#clip0_1_37)">
<g filter="url(#filter0_d_1_37)">
<path d="M17.7363 6.89649L12.7774 6.17579L10.5606 1.68165C10.5 1.5586 10.4004 1.45899 10.2773 1.39844C9.96876 1.2461 9.59376 1.37305 9.43946 1.68165L7.22266 6.17579L2.26368 6.89649C2.12696 6.91602 2.00196 6.98048 1.90626 7.07813C1.79056 7.19705 1.7268 7.35704 1.729 7.52294C1.7312 7.68884 1.79917 7.84709 1.91797 7.9629L5.50587 11.4609L4.65821 16.4004C4.63833 16.5153 4.65105 16.6335 4.69491 16.7415C4.73878 16.8496 4.81204 16.9432 4.90639 17.0117C5.00074 17.0802 5.1124 17.1209 5.22872 17.1292C5.34503 17.1375 5.46134 17.113 5.56446 17.0586L10 14.7266L14.4356 17.0586C14.5566 17.1231 14.6973 17.1445 14.832 17.1211C15.1719 17.0625 15.4004 16.7402 15.3418 16.4004L14.4941 11.4609L18.082 7.9629C18.1797 7.8672 18.2441 7.74219 18.2637 7.60548C18.3164 7.26368 18.0781 6.94727 17.7363 6.89649Z" fill="#1E2CA5"/>
</g>
</g>
<g clip-path="url(#clip1_1_37)">
<g filter="url(#filter1_d_1_37)">
<path d="M47.7363 6.89649L42.7774 6.17579L40.5606 1.68165C40.5 1.5586 40.4004 1.45899 40.2773 1.39844C39.9688 1.2461 39.5938 1.37305 39.4395 1.68165L37.2227 6.17579L32.2637 6.89649C32.127 6.91602 32.002 6.98048 31.9063 7.07813C31.7906 7.19705 31.7268 7.35704 31.729 7.52294C31.7312 7.68884 31.7992 7.84709 31.918 7.9629L35.5059 11.4609L34.6582 16.4004C34.6383 16.5153 34.651 16.6335 34.6949 16.7415C34.7388 16.8496 34.812 16.9432 34.9064 17.0117C35.0007 17.0802 35.1124 17.1209 35.2287 17.1292C35.345 17.1375 35.4613 17.113 35.5645 17.0586L40 14.7266L44.4356 17.0586C44.5566 17.1231 44.6973 17.1445 44.832 17.1211C45.1719 17.0625 45.4004 16.7402 45.3418 16.4004L44.4941 11.4609L48.082 7.9629C48.1797 7.8672 48.2441 7.74219 48.2637 7.60548C48.3164 7.26368 48.0781 6.94727 47.7363 6.89649Z" fill="#1E2CA5"/>
</g>
</g>
<g clip-path="url(#clip2_1_37)">
<g filter="url(#filter2_d_1_37)">
<path d="M77.7363 6.89649L72.7774 6.17579L70.5606 1.68165C70.5 1.5586 70.4004 1.45899 70.2773 1.39844C69.9688 1.2461 69.5938 1.37305 69.4395 1.68165L67.2227 6.17579L62.2637 6.89649C62.127 6.91602 62.002 6.98048 61.9063 7.07813C61.7906 7.19705 61.7268 7.35704 61.729 7.52294C61.7312 7.68884 61.7992 7.84709 61.918 7.9629L65.5059 11.4609L64.6582 16.4004C64.6383 16.5153 64.651 16.6335 64.6949 16.7415C64.7388 16.8496 64.812 16.9432 64.9064 17.0117C65.0007 17.0802 65.1124 17.1209 65.2287 17.1292C65.345 17.1375 65.4613 17.113 65.5645 17.0586L70 14.7266L74.4356 17.0586C74.5566 17.1231 74.6973 17.1445 74.832 17.1211C75.1719 17.0625 75.4004 16.7402 75.3418 16.4004L74.4941 11.4609L78.082 7.9629C78.1797 7.8672 78.2441 7.74219 78.2637 7.60548C78.3164 7.26368 78.0781 6.94727 77.7363 6.89649Z" fill="#1E2CA5"/>
</g>
</g>
<g clip-path="url(#clip3_1_37)">
<g filter="url(#filter3_d_1_37)">
<path d="M107.736 6.89649L102.777 6.17579L100.561 1.68165C100.5 1.5586 100.4 1.45899 100.277 1.39844C99.9688 1.2461 99.5938 1.37305 99.4395 1.68165L97.2227 6.17579L92.2637 6.89649C92.127 6.91602 92.002 6.98048 91.9063 7.07813C91.7906 7.19705 91.7268 7.35704 91.729 7.52294C91.7312 7.68884 91.7992 7.84709 91.918 7.9629L95.5059 11.4609L94.6582 16.4004C94.6383 16.5153 94.651 16.6335 94.6949 16.7415C94.7388 16.8496 94.812 16.9432 94.9064 17.0117C95.0007 17.0802 95.1124 17.1209 95.2287 17.1292C95.345 17.1375 95.4613 17.113 95.5645 17.0586L100 14.7266L104.436 17.0586C104.557 17.1231 104.697 17.1445 104.832 17.1211C105.172 17.0625 105.4 16.7402 105.342 16.4004L104.494 11.4609L108.082 7.9629C108.18 7.8672 108.244 7.74219 108.264 7.60548C108.316 7.26368 108.078 6.94727 107.736 6.89649Z" fill="#1E2CA5"/>
</g>
</g>
<g clip-path="url(#clip4_1_37)">
<g filter="url(#filter4_d_1_37)">
<path d="M137.736 6.89649L132.777 6.17579L130.561 1.68165C130.5 1.5586 130.4 1.45899 130.277 1.39844C129.969 1.2461 129.594 1.37305 129.439 1.68165L127.223 6.17579L122.264 6.89649C122.127 6.91602 122.002 6.98048 121.906 7.07813C121.791 7.19705 121.727 7.35704 121.729 7.52294C121.731 7.68884 121.799 7.84709 121.918 7.9629L125.506 11.4609L124.658 16.4004C124.638 16.5153 124.651 16.6335 124.695 16.7415C124.739 16.8496 124.812 16.9432 124.906 17.0117C125.001 17.0802 125.112 17.1209 125.229 17.1292C125.345 17.1375 125.461 17.113 125.564 17.0586L130 14.7266L134.436 17.0586C134.557 17.1231 134.697 17.1445 134.832 17.1211C135.172 17.0625 135.4 16.7402 135.342 16.4004L134.494 11.4609L138.082 7.9629C138.18 7.8672 138.244 7.74219 138.264 7.60548C138.316 7.26368 138.078 6.94727 137.736 6.89649V6.89649ZM132.984 10.9688L133.689 15.0762L130 13.1387L126.311 15.0781L127.016 10.9707L124.031 8.06055L128.156 7.46094L130 3.72462L131.844 7.46094L135.969 8.06055L132.984 10.9688Z" fill="#1E2CA5"/>
</g>
</g>
<defs>
<filter id="filter0_d_1_37" x="-1.27106" y="-1.66602" width="22.5421" height="21.7968" filterUnits="userSpaceOnUse" color-interpolation-filters="sRGB">
<feFlood flood-opacity="0" result="BackgroundImageFix"/>
<feColorMatrix in="SourceAlpha" type="matrix" values="0 0 0 0 0 0 0 0 0 0 0 0 0 0 0 0 0 0 127 0" result="hardAlpha"/>
<feOffset/>
<feGaussianBlur stdDeviation="1.5"/>
<feComposite in2="hardAlpha" operator="out"/>
<feColorMatrix type="matrix" values="0 0 0 0 0.27451 0 0 0 0 0.568627 0 0 0 0 0.0745098 0 0 0 0.35 0"/>
<feBlend mode="normal" in2="BackgroundImageFix" result="effect1_dropShadow_1_37"/>
<feBlend mode="normal" in="SourceGraphic" in2="effect1_dropShadow_1_37" result="shape"/>
</filter>
<filter id="filter1_d_1_37" x="28.7289" y="-1.66602" width="22.5421" height="21.7968" filterUnits="userSpaceOnUse" color-interpolation-filters="sRGB">
<feFlood flood-opacity="0" result="BackgroundImageFix"/>
<feColorMatrix in="SourceAlpha" type="matrix" values="0 0 0 0 0 0 0 0 0 0 0 0 0 0 0 0 0 0 127 0" result="hardAlpha"/>
<feOffset/>
<feGaussianBlur stdDeviation="1.5"/>
<feComposite in2="hardAlpha" operator="out"/>
<feColorMatrix type="matrix" values="0 0 0 0 0.27451 0 0 0 0 0.568627 0 0 0 0 0.0745098 0 0 0 0.35 0"/>
<feBlend mode="normal" in2="BackgroundImageFix" result="effect1_dropShadow_1_37"/>
<feBlend mode="normal" in="SourceGraphic" in2="effect1_dropShadow_1_37" result="shape"/>
</filter>
<filter id="filter2_d_1_37" x="58.7289" y="-1.66602" width="22.5421" height="21.7968" filterUnits="userSpaceOnUse" color-interpolation-filters="sRGB">
<feFlood flood-opacity="0" result="BackgroundImageFix"/>
<feColorMatrix in="SourceAlpha" type="matrix" values="0 0 0 0 0 0 0 0 0 0 0 0 0 0 0 0 0 0 127 0" result="hardAlpha"/>
<feOffset/>
<feGaussianBlur stdDeviation="1.5"/>
<feComposite in2="hardAlpha" operator="out"/>
<feColorMatrix type="matrix" values="0 0 0 0 0.27451 0 0 0 0 0.568627 0 0 0 0 0.0745098 0 0 0 0.35 0"/>
<feBlend mode="normal" in2="BackgroundImageFix" result="effect1_dropShadow_1_37"/>
<feBlend mode="normal" in="SourceGraphic" in2="effect1_dropShadow_1_37" result="shape"/>
</filter>
<filter id="filter3_d_1_37" x="88.7289" y="-1.66602" width="22.5421" height="21.7968" filterUnits="userSpaceOnUse" color-interpolation-filters="sRGB">
<feFlood flood-opacity="0" result="BackgroundImageFix"/>
<feColorMatrix in="SourceAlpha" type="matrix" values="0 0 0 0 0 0 0 0 0 0 0 0 0 0 0 0 0 0 127 0" result="hardAlpha"/>
<feOffset/>
<feGaussianBlur stdDeviation="1.5"/>
<feComposite in2="hardAlpha" operator="out"/>
<feColorMatrix type="matrix" values="0 0 0 0 0.27451 0 0 0 0 0.568627 0 0 0 0 0.0745098 0 0 0 0.35 0"/>
<feBlend mode="normal" in2="BackgroundImageFix" result="effect1_dropShadow_1_37"/>
<feBlend mode="normal" in="SourceGraphic" in2="effect1_dropShadow_1_37" result="shape"/>
</filter>
<filter id="filter4_d_1_37" x="118.729" y="-1.66602" width="22.5421" height="21.7968" filterUnits="userSpaceOnUse" color-interpolation-filters="sRGB">
<feFlood flood-opacity="0" result="BackgroundImageFix"/>
<feColorMatrix in="SourceAlpha" type="matrix" values="0 0 0 0 0 0 0 0 0 0 0 0 0 0 0 0 0 0 127 0" result="hardAlpha"/>
<feOffset/>
<feGaussianBlur stdDeviation="1.5"/>
<feComposite in2="hardAlpha" operator="out"/>
<feColorMatrix type="matrix" values="0 0 0 0 0.27451 0 0 0 0 0.568627 0 0 0 0 0.0745098 0 0 0 0.35 0"/>
<feBlend mode="normal" in2="BackgroundImageFix" result="effect1_dropShadow_1_37"/>
<feBlend mode="normal" in="SourceGraphic" in2="effect1_dropShadow_1_37" result="shape"/>
</filter>
<clipPath id="clip0_1_37">
<rect width="20" height="20" fill="white"/>
</clipPath>
<clipPath id="clip1_1_37">
<rect width="20" height="20" fill="white" transform="translate(30)"/>
</clipPath>
<clipPath id="clip2_1_37">
<rect width="20" height="20" fill="white" transform="translate(60)"/>
</clipPath>
<clipPath id="clip3_1_37">
<rect width="20" height="20" fill="white" transform="translate(90)"/>
</clipPath>
<clipPath id="clip4_1_37">
<rect width="20" height="20" fill="white" transform="translate(120)"/>
</clipPath>
</defs>
</svg>
