<svg width="12" height="12" viewBox="0 0 12 12" fill="none" xmlns="http://www.w3.org/2000/svg">
<g clip-path="url(#clip0_1_285)">
<path d="M10.5 10.5L8.257 8.253L10.5 10.5ZM9.5 5.25C9.5 6.37717 9.05223 7.45817 8.25521 8.2552C7.45818 9.05223 6.37717 9.5 5.25 9.5C4.12283 9.5 3.04183 9.05223 2.2448 8.2552C1.44777 7.45817 1 6.37717 1 5.25C1 4.12283 1.44777 3.04183 2.2448 2.2448C3.04183 1.44777 4.12283 1 5.25 1C6.37717 1 7.45818 1.44777 8.25521 2.2448C9.05223 3.04183 9.5 4.12283 9.5 5.25V5.25Z" stroke="#242424" stroke-width="2" stroke-linecap="round"/>
</g>
<defs>
<clipPath id="clip0_1_285">
<rect width="12" height="12" fill="white"/>
</clipPath>
</defs>
</svg>
